# xmcd
#
# Track frame offsets:
#	150
#	22907
#	45428
#	70327
#	102505
#	131588
#	154491
#	182429
#	199920
#	226596
#	249225
#	270014
#	294418
#
# Disc length: 4136 seconds
#
# Revision: 0
# Processed by: cddbd v1.5.2PL0 Copyright (c) Steve Scherf et al.
# Submitted via: dBpowerAMP V4.0
#
DISCID=a410260d
DTITLE=Various Artist - collabo
DYEAR=1900
DGENRE=
TTITLE0=美しく燃える森
TTITLE1=the meaning of peace
TTITLE2=ポーかフェイスー
TTITLE3=life
TTITLE4=two of a kind
TTITLE5=candy pop
TTITLE6=cause i love you
TTITLE7=whre is the love
TTITLE8=眠りの森
TTITLE9=natural vibes
TTITLE10=tragicomic
TTITLE11=believe the light
TTITLE12=ありがとう
EXTD=
EXTT0=
EXTT1=
EXTT2=
EXTT3=
EXTT4=
EXTT5=
EXTT6=
EXTT7=
EXTT8=
EXTT9=
EXTT10=
EXTT11=
EXTT12=
PLAYORDER=
